<svg xmlns="http://www.w3.org/2000/svg" width="572" height="257" viewBox="0 0 572 257">
  <g id="sponsor_1" data-name="sponsor 1" transform="translate(-254 -3135)">
    <g id="HYU_initial_kor" transform="translate(373.336 3229.908) rotate(-1)">
      <path id="패스_25" data-name="패스 25" d="M194.07,61.22l.58-33.41c.09-5.36,1.58-7.73,4.82-7.67L342,22.63l.05-3L10.66,13.86l-.05,3,12.7.23-1.07,61.5L9.53,78.37v3l331.36,5.79.05-3-159-2.78c8.15-3.27,12-10.5,12.13-20.16M124.2,18.83c4.06.07,5.39,1.29,5.35,3.69,0,1.57-.79,3.67-1.92,6.33L116.47,53.57,102.19,18.44Zm-37.34-.65,16.79,41L103.29,80l-29.46-.52L74.9,18Zm-26-.46M60.34,46l-23.45-.41.49-28.23,23.45.41ZM36.83,49.19l23.44.41-.51,29.65-23.45-.41Zm80.53,31.06.35-20.49,14.56-32.12c2.92-6.87,5-8.58,8.09-8.53l6.26.11-.71,40.7c-.17,10.14,4.57,17.52,12.57,21Zm57-.73C161.15,79.29,159.8,70.78,160,59l.69-39.51,24.39.43c4.6.08,6,2.5,5.91,7.85l-.59,34c-.21,12-7.34,18-16.09,17.8" transform="translate(-9.48 -13.86)" fill="#00467f"/>
      <path id="패스_26" data-name="패스 26" d="M212.89,48.95l-.06,3.57,1.81.03.06-3.57,1.74.03-.16,8.91-1.73-.03.06-3.72-1.81-.04-.06,3.73L211,57.83l.16-8.91Z" fill="#58595b"/>
      <path id="패스_27" data-name="패스 27" d="M229.57,69.82l-.43,2h-1.68l2.09-8.87h2.07l1.58,8.94h-1.68l-.35-2ZM231,68.49l-.26-1.87c-.09-.54-.19-1.43-.26-2h0c-.1.59-.25,1.52-.35,2l-.36,1.85Z" transform="translate(-9.48 -13.86)" fill="#58595b"/>
      <path id="패스_28" data-name="패스 28" d="M235,72l.15-8.92h1.59l1.31,3.52c.26.69.67,1.84.91,2.62h0c0-.94-.13-2.49-.1-4.13v-2h1.53l-.1,8.91H238.7l-1.3-3.41a24.213,24.213,0,0,1-.85-2.7h0c0,.9.06,2.28,0,4.08v2Z" transform="translate(-9.48 -13.86)" fill="#58595b"/>
      <path id="패스_29" data-name="패스 29" d="M243.63,72.1l.06-3.41-1.86-5.54h1.85l.58,2.14c.14.57.3,1.24.43,1.9h0c.12-.65.28-1.29.45-1.92l.56-2.08h1.8l-2.09,5.4-.06,3.48Z" transform="translate(-9.48 -13.86)" fill="#58595b"/>
      <path id="패스_30" data-name="패스 30" d="M249.82,70.17l-.43,2h-1.68l2.08-8.88h2.08l1.58,8.94h-1.68l-.35-2Zm1.46-1.33L251,67c-.09-.54-.19-1.43-.26-2h0c-.1.59-.25,1.51-.35,2L250,68.82Z" transform="translate(-9.48 -13.86)" fill="#58595b"/>
      <path id="패스_31" data-name="패스 31" d="M255.25,72.3l.15-8.91h1.59l1.32,3.52c.25.69.66,1.84.9,2.62h0c0-.94-.13-2.48-.1-4.13v-2h1.52l-.15,8.91h-1.59L257.65,69a27.364,27.364,0,0,1-.86-2.7h0c0,.9.06,2.27,0,4.07v2Z" transform="translate(-9.48 -13.86)" fill="#58595b"/>
      <path id="패스_32" data-name="패스 32" d="M267.84,72.28a5.61,5.61,0,0,1-1.85.29,3.17,3.17,0,0,1-2.37-.93A4.89,4.89,0,0,1,262.54,68c.09-3.24,2-4.55,3.86-4.52a3.5,3.5,0,0,1,1.45.29l-.33,1.49a2.31,2.31,0,0,0-1-.22c-1.18,0-2.13.77-2.17,3.1,0,2.14.78,2.92,1.59,2.94a1.3,1.3,0,0,0,.34,0V68.92h-.79V67.51h2.4Z" transform="translate(-9.48 -13.86)" fill="#58595b"/>
      <path id="패스_33" data-name="패스 33" d="M274.72,63.72l-.1,5.8c0,1.31.36,1.71.81,1.72s.87-.34.89-1.69l.1-5.8h1.73l-.09,5.49c0,2.29-.92,3.52-2.64,3.49-1.87,0-2.57-1.33-2.53-3.56l.09-5.51Z" transform="translate(-9.48 -13.86)" fill="#58595b"/>
      <path id="패스_34" data-name="패스 34" d="M280.31,72.74l.16-8.92h1.59l1.31,3.52c.25.69.67,1.84.91,2.62h0c0-.94-.12-2.49-.1-4.13v-2h1.52l-.16,8.91h-1.58l-1.31-3.41a24.216,24.216,0,0,1-.85-2.7h0c0,.9.06,2.28,0,4.08v2Z" transform="translate(-9.48 -13.86)" fill="#58595b"/>
      <rect id="사각형_8" data-name="사각형 8" width="8.92" height="1.73" transform="translate(278.473 59.012) rotate(-89)" fill="#58595b"/>
      <path id="패스_35" data-name="패스 35" d="M293.3,73l-1.84-9h1.92l.57,3.86c.14,1,.3,2.06.4,3.1h0c.14-1.05.3-2.12.48-3.13l.68-3.79h1.9L295.25,73Z" transform="translate(-9.48 -13.86)" fill="#58595b"/>
      <path id="패스_36" data-name="패스 36" d="M293.21,55.35l-2.03-.03-.05,2.41,2.31.04-.03,1.5-4.03-.07.15-8.91,3.87.07-.02,1.5-2.14-.03-.04,2.04,2.04.04Z" fill="#58595b"/>
      <path id="패스_37" data-name="패스 37" d="M305,64.39a9.42,9.42,0,0,1,1.9-.14,3.42,3.42,0,0,1,2.37.7,2.26,2.26,0,0,1,.66,1.86A2.38,2.38,0,0,1,308.56,69h0c.6.25.9.82,1.05,1.78a14.917,14.917,0,0,0,.53,2.43h-1.81a12,12,0,0,1-.4-2.14c-.14-1.11-.41-1.44-1-1.45h-.25l-.06,3.56h-1.73Zm1.67,3.91h.3a1.24,1.24,0,0,0,1.22-1.37c0-.75-.29-1.3-1.06-1.34a1.31,1.31,0,0,0-.42.05Z" transform="translate(-9.48 -13.86)" fill="#58595b"/>
      <path id="패스_38" data-name="패스 38" d="M311.76,71.52a3.45,3.45,0,0,0,1.46.37c.82,0,1.22-.41,1.23-1s-.38-1-1.12-1.48a3,3,0,0,1-1.64-2.51,2.56,2.56,0,0,1,2.87-2.57,3.06,3.06,0,0,1,1.39.34l-.3,1.49a2.17,2.17,0,0,0-1.13-.32c-.75,0-1.11.43-1.12.91s.25.81,1.21,1.4a2.92,2.92,0,0,1,1.57,2.58,2.69,2.69,0,0,1-3,2.65,4,4,0,0,1-1.7-.38Z" transform="translate(-9.48 -13.86)" fill="#58595b"/>
      <rect id="사각형_9" data-name="사각형 9" width="8.92" height="1.73" transform="translate(308.477 59.535) rotate(-89)" fill="#58595b"/>
      <path id="패스_39" data-name="패스 39" d="M313.67,52.31l-1.57-.03.02-1.6,4.9.09-.03,1.6-1.59-.03-.13,7.31-1.73-.03Z" fill="#58595b"/>
      <path id="패스_40" data-name="패스 40" d="M329.52,73.6l.06-3.41-1.86-5.54h1.85l.57,2.14c.15.57.31,1.24.43,1.9h0c.12-.65.28-1.29.45-1.92l.56-2.08h1.8l-2.09,5.4-.06,3.48Z" transform="translate(-9.48 -13.86)" fill="#58595b"/>
      <path id="패스_41" data-name="패스 41" d="M236.14,33.19l-3.4-.06-.29,17,3.4.06L236,41h3.34V39H236ZM224.62,48l-3.4-.06-.15,8.69,15.05.27v-2l-11.66-.21Zm104.5,5,3.2.05.32-18.29-16.47-.29v2l13.26.23ZM248.67,32.89c-8.43-.15-8.65,12.16-.22,12.31s8.62-12.17.22-12.31m0,1.9c4.11.07,4,8.61-.15,8.54s-4-8.62.15-8.54m-20.78,1.39h3.08v-2l-5.09-.09V32.18l-3.4-.06v1.92l-5.1-.09v2h3.07c-3.81,2.84-2.7,10.14,3.56,10.25s7.59-7.15,3.89-10.12m-3.73.54c3.86.07,3.73,7.87-.13,7.8s-3.76-7.87.13-7.8m69.49,14.5,11.87.21-.11,6.71h3.39l.16-8.69-15.28-.26Zm15.57-16.76-3.4-.06-.24,14,3.4.06.1-6.14,3.35.06v-2l-3.34-.06Zm-8.29,3h3.08v-2l-5.1-.09V33.35l-3.4-.05v1.91l-5.09-.09v2l3.07.06c-3.82,2.83-2.7,10.14,3.56,10.24s7.59-7.15,3.89-10.11m-3.73.53c3.86.07,3.72,7.87-.14,7.8s-3.75-7.86.14-7.8M254,46.29c-8.68-.15-8.91,11.61-.21,11.76s8.86-11.61.21-11.76m-.17,9.88c-4.25-.07-4.11-8.12.14-8.05s4.08,8.12-.14,8.05M327,54.92l.18-10.3h-3.14l-.18,10.3h-2.25l.17-10.3-3.14-.06-.18,10.31L315,54.72v2l18.61.32v-2ZM260.38,33.63,257,33.57l-.22,12.68,3.42.06.06-3.34,3.35.06v-2h-3.35l.05-2.88,3.35.06v-2l-3.35-.06Zm22.56,7.72h-1.58l.13-7.34-3.2-.06-.24,13.54-6.35-.11.21-11.53,4.68.09v-2l-8.09-.14-.27,15.56,9.75.17-.14,8.21,3.19.05.25-14.4h1.58l-.25,14.4,3.2.06.41-23.77L283.07,34Z" transform="translate(-9.48 -13.86)" fill="#58595b"/>
    </g>
    <g id="사각형_11" data-name="사각형 11" transform="translate(254 3135)" fill="none" stroke="#707070" stroke-width="1">
      <rect width="572" height="257" stroke="none"/>
      <rect x="0.5" y="0.5" width="571" height="256" fill="none"/>
    </g>
  </g>
</svg>
